<?xml version="1.0" standalone="no"?>
<!DOCTYPE svg PUBLIC "-//W3C//DTD SVG 20010904//EN"
 "http://www.w3.org/TR/2001/REC-SVG-20010904/DTD/svg10.dtd">
<svg version="1.0" xmlns="http://www.w3.org/2000/svg"
 width="1070.000000pt" height="1070.000000pt" viewBox="0 0 1070.000000 1070.000000"
 preserveAspectRatio="xMidYMid meet">
<metadata>
Created by potrace 1.11, written by Peter Selinger 2001-2013
</metadata>
<g transform="translate(0.000000,1070.000000) scale(0.100000,-0.100000)"
fill="#000000" stroke="none">
<path d="M5257 8934 c-1 -1 -51 -4 -112 -8 -60 -3 -123 -8 -140 -10 -16 -2
-59 -7 -95 -11 -56 -6 -265 -41 -295 -49 -5 -1 -37 -8 -70 -15 -74 -16 -171
-43 -295 -84 -52 -17 -97 -32 -100 -32 -3 -1 -18 -7 -33 -13 -16 -7 -30 -12
-32 -12 -3 0 -30 -12 -62 -26 -32 -14 -80 -35 -107 -47 -205 -91 -481 -249
-661 -380 -99 -72 -138 -102 -240 -187 -94 -78 -398 -395 -444 -463 -8 -12
-18 -24 -21 -27 -32 -26 -215 -297 -300 -445 -223 -386 -407 -933 -446 -1330
-2 -27 -6 -59 -9 -70 -18 -88 -26 -543 -11 -695 32 -332 89 -603 189 -895 86
-253 229 -539 392 -790 61 -95 217 -307 249 -341 6 -6 31 -36 56 -65 63 -76
282 -295 360 -360 36 -30 67 -57 70 -60 15 -17 181 -137 285 -206 302 -201
647 -362 993 -464 134 -39 380 -92 481 -104 30 -4 61 -8 70 -10 9 -1 50 -6 91
-10 396 -39 836 -19 1165 51 39 9 81 18 95 20 104 20 473 136 522 164 10 5 22
10 27 10 10 0 72 28 239 106 148 70 457 255 556 335 287 229 460 394 616 588
19 24 40 48 46 55 10 11 84 109 114 152 37 53 170 255 170 260 0 2 12 23 26
45 79 126 208 415 278 624 51 151 140 494 131 503 -6 6 -2073 7 -2078 1 -2 -2
-25 -47 -52 -99 -27 -52 -72 -137 -102 -187 -29 -51 -53 -97 -53 -102 0 -5 -3
-11 -7 -13 -5 -1 -21 -23 -37 -48 -39 -61 -152 -194 -218 -256 -203 -193 -505
-354 -723 -388 -22 -4 -53 -9 -70 -11 -119 -20 -372 -20 -500 1 -517 83 -944
424 -1184 948 -51 110 -119 309 -136 396 -40 207 -48 280 -49 440 -2 294 56
570 174 840 175 399 525 735 910 875 41 15 82 28 90 30 8 2 44 10 80 19 36 8
92 18 125 21 33 4 74 9 90 11 50 6 226 6 300 -1 57 -5 185 -27 230 -39 172
-46 384 -150 529 -258 38 -28 110 -93 161 -145 151 -150 332 -439 406 -647
l24 -66 1043 0 1043 0 -6 42 c-4 24 -8 45 -10 48 -1 3 -6 25 -9 50 -10 77 -63
282 -105 408 -108 323 -325 740 -508 977 -5 6 -24 30 -43 55 -142 185 -426
474 -580 590 -18 14 -38 30 -44 35 -40 38 -290 209 -366 251 -19 10 -37 21
-40 24 -23 23 -370 196 -490 245 -182 73 -464 158 -600 180 -19 3 -57 10 -85
15 -55 10 -96 16 -167 24 -27 4 -69 9 -95 12 -101 12 -585 27 -596 18z m463
-168 c100 -8 173 -15 215 -21 17 -3 48 -7 70 -10 37 -6 108 -18 180 -31 46 -8
221 -53 300 -76 169 -50 477 -185 650 -285 39 -22 85 -49 104 -59 19 -10 40
-22 45 -26 6 -4 58 -39 116 -77 349 -231 713 -597 942 -948 86 -132 109 -172
194 -344 127 -255 227 -532 263 -724 l8 -44 -888 -1 -887 0 -51 105 c-28 58
-73 143 -101 188 -28 45 -56 91 -63 102 -36 58 -152 207 -201 257 -261 266
-610 447 -956 494 -94 12 -130 14 -250 14 -142 -1 -170 -3 -288 -21 -107 -16
-112 -17 -208 -45 -118 -33 -253 -94 -367 -162 -50 -31 -94 -58 -97 -61 -3 -4
-30 -25 -60 -47 -351 -264 -594 -658 -704 -1141 -24 -106 -28 -131 -43 -263
-25 -229 2 -538 68 -778 16 -59 31 -114 33 -122 8 -28 93 -235 116 -280 48
-93 143 -248 200 -325 180 -242 457 -455 734 -565 70 -28 249 -78 301 -85 11
-1 40 -5 65 -8 25 -4 68 -9 95 -12 62 -8 303 -8 336 -1 13 3 49 8 79 11 363
37 751 257 1035 588 45 52 156 208 166 233 14 32 153 275 161 280 7 5 1696 9
1765 5 26 -2 -95 -382 -189 -591 -61 -135 -143 -289 -221 -415 -48 -76 -217
-315 -241 -341 -6 -6 -31 -36 -56 -65 -322 -379 -732 -689 -1170 -885 -69 -30
-138 -62 -155 -69 -63 -28 -364 -125 -455 -146 -161 -36 -224 -50 -260 -55
-19 -2 -62 -9 -95 -14 -254 -43 -735 -45 -1015 -5 -57 9 -213 34 -240 40 -14
3 -34 7 -45 9 -82 16 -282 73 -392 110 -337 116 -716 321 -1003 545 -116 89
-153 123 -289 254 -195 189 -387 436 -556 712 -43 71 -144 267 -198 385 -101
219 -211 608 -247 876 -6 44 -12 90 -15 102 -10 52 -19 250 -19 402 0 230 18
444 49 590 3 14 8 43 11 65 10 68 72 304 110 420 68 208 171 443 264 605 23
41 51 91 62 110 11 19 26 42 34 51 8 8 14 18 14 22 0 6 79 127 90 137 3 3 30
39 60 80 30 41 57 77 60 80 3 3 25 30 50 60 82 101 263 287 353 363 27 23 55
47 61 52 35 34 204 160 281 212 427 284 918 483 1355 549 19 3 46 7 60 10 14
2 52 6 85 10 33 3 71 7 85 10 14 2 75 7 135 10 61 4 111 7 112 8 5 5 375 -2
453 -8z"/>
</g>
</svg>
